<svg height="496pt" viewBox="-23 0 495 496" width="496pt" xmlns="http://www.w3.org/2000/svg" xmlns:xlink="http://www.w3.org/1999/xlink"><linearGradient id="a"><stop offset="0" stop-color="#003f8a"/><stop offset=".518" stop-color="#00d7df"/><stop offset="1" stop-color="#006df0"/></linearGradient><linearGradient id="b" gradientUnits="userSpaceOnUse" x1="-87.948" x2="470.868" xlink:href="#a" y1="524.448" y2="-34.368"/><linearGradient id="c" gradientUnits="userSpaceOnUse" x1="-159.948" x2="398.868" xlink:href="#a" y1="452.448" y2="-106.368"/><linearGradient id="d" gradientUnits="userSpaceOnUse" x1="-149.948" x2="408.868" xlink:href="#a" y1="462.448" y2="-96.368"/><linearGradient id="e" gradientUnits="userSpaceOnUse" x1="-121.948" x2="436.868" xlink:href="#a" y1="490.448" y2="-68.368"/><linearGradient id="f" gradientUnits="userSpaceOnUse" x1="-141.948" x2="416.868" xlink:href="#a" y1="470.448" y2="-88.368"/><linearGradient id="g" gradientUnits="userSpaceOnUse" x1="-81.948" x2="476.868" xlink:href="#a" y1="530.448" y2="-28.368"/><linearGradient id="h" gradientUnits="userSpaceOnUse" x1="-125.948" x2="432.868" xlink:href="#a" y1="486.448" y2="-72.368"/><linearGradient id="i" gradientUnits="userSpaceOnUse" x1="-97.948" x2="460.868" xlink:href="#a" y1="514.448" y2="-44.368"/><linearGradient id="j" gradientUnits="userSpaceOnUse" x1="-69.948" x2="488.868" xlink:href="#a" y1="542.448" y2="-16.368"/><linearGradient id="k" gradientUnits="userSpaceOnUse" x1="-29.948" x2="528.868" xlink:href="#a" y1="582.448" y2="23.632"/><linearGradient id="l" gradientUnits="userSpaceOnUse" x1="-211.948" x2="346.868" xlink:href="#a" y1="400.448" y2="-158.368"/><path d="m441.554688 120.070312-11.40625-11.199218c-4.472657-4.417969-10.511719-6.894532-16.800782-6.886719h-.214844c-6.375.042969-12.464843 2.636719-16.914062 7.199219l-19.71875 20.015625v-121.199219c0-4.417969-3.582031-8-8-8h-360c-4.417969 0-8 3.582031-8 8v480c0 4.417969 3.582031 8 8 8h360c4.417969 0 8-3.582031 8-8v-267.472656l65.351562-66.519532c9.289063-9.453124 9.15625-24.644531-.296874-33.9375zm-81.054688 359.929688h-344v-464h344v128c.050781.417969.132812.828125.246094 1.230469l-149.597656 152.234375c-.585938.878906-1.15625 1.761718-1.71875 2.65625v.039062l-22.128907 56.769532c-.960937 2.460937-.640625 5.238281.851563 7.417968 1.488281 2.179688 3.960937 3.484375 6.605468 3.484375 1.039063.003907 2.070313-.199219 3.03125-.601562l56.3125-23.109375c.464844-.246094.90625-.539063 1.308594-.875.488282-.257813.945313-.5625 1.371094-.910156l103.71875-105.535157zm-140.566406-162.71875 16.933594 16.628906-27.878907 11.441406zm31.085937 8.117188-22.824219-22.398438 145.785157-148.398438 22.824219 22.398438zm179.425781-182.605469-22.402343 22.824219-22.824219-22.402344 22.402344-22.824219c3.09375-3.152344 8.160156-3.195313 11.3125-.101563l11.40625 11.199219c3.152344 3.09375 3.199218 8.160157.105468 11.3125zm0 0" fill="url(#b)"/><path d="m136.5 64h200c4.417969 0 8-3.582031 8-8s-3.582031-8-8-8h-200c-4.417969 0-8 3.582031-8 8s3.582031 8 8 8zm0 0" fill="url(#c)"/><path d="m136.5 112h144c4.417969 0 8-3.582031 8-8s-3.582031-8-8-8h-144c-4.417969 0-8 3.582031-8 8s3.582031 8 8 8zm0 0" fill="url(#d)"/><path d="m136.5 168h144c4.417969 0 8-3.582031 8-8s-3.582031-8-8-8h-144c-4.417969 0-8 3.582031-8 8s3.582031 8 8 8zm0 0" fill="url(#e)"/><path d="m40.5 224h144c4.417969 0 8-3.582031 8-8s-3.582031-8-8-8h-144c-4.417969 0-8 3.582031-8 8s3.582031 8 8 8zm0 0" fill="url(#f)"/><path d="m248.5 208h-32c-4.417969 0-8 3.582031-8 8s3.582031 8 8 8h32c4.417969 0 8-3.582031 8-8s-3.582031-8-8-8zm0 0" fill="url(#g)"/><path d="m40.5 280h96c4.417969 0 8-3.582031 8-8s-3.582031-8-8-8h-96c-4.417969 0-8 3.582031-8 8s3.582031 8 8 8zm0 0" fill="url(#h)"/><path d="m40.5 336h96c4.417969 0 8-3.582031 8-8s-3.582031-8-8-8h-96c-4.417969 0-8 3.582031-8 8s3.582031 8 8 8zm0 0" fill="url(#i)"/><path d="m40.5 408h64c4.417969 0 8-3.582031 8-8s-3.582031-8-8-8h-64c-4.417969 0-8 3.582031-8 8s3.582031 8 8 8zm0 0" fill="url(#j)"/><path d="m184.5 432h-144c-4.417969 0-8 3.582031-8 8s3.582031 8 8 8h144c4.417969 0 8-3.582031 8-8s-3.582031-8-8-8zm0 0" fill="url(#k)"/><path d="m55.027344 93.601562 17.472656-17.9375v84.335938c0 4.417969 3.582031 8 8 8s8-3.582031 8-8v-104c.007812-3.257812-1.960938-6.191406-4.976562-7.421875-3.015626-1.230469-6.476563-.511719-8.75 1.820313l-31.203126 32c-3.089843 3.164062-3.035156 8.238281.128907 11.328124 3.164062 3.09375 8.234375 3.035157 11.328125-.125zm0 0" fill="url(#l)"/></svg>